<svg xmlns="http://www.w3.org/2000/svg" viewBox="0 0 400 400" preserveAspectRatio="xMidYMid slice">
  <defs>
    <linearGradient id="g" x1="0%" y1="0%" x2="100%" y2="100%">
      <stop offset="0%" stop-color="#e9b53b"/>
      <stop offset="100%" stop-color="#b8841d"/>
    </linearGradient>
  </defs>
  <rect width="400" height="400" fill="url(#g)"/>
  <g transform="translate(200 200)" fill="none" stroke="#ffffff" stroke-width="6" stroke-linecap="round">
    <path d="M-65 -40 Q-50 -65 -25 -55 Q0 -45 25 -55 Q50 -65 65 -40"/>
    <path d="M-65 -10 Q-50 -35 -25 -25 Q0 -15 25 -25 Q50 -35 65 -10"/>
    <path d="M-65 20 Q-50 -5 -25 5 Q0 15 25 5 Q50 -5 65 20"/>
    <path d="M-65 50 Q-50 25 -25 35 Q0 45 25 35 Q50 25 65 50"/>
  </g>
  <text x="200" y="335" text-anchor="middle" font-family="Manrope, sans-serif" font-size="36" font-weight="800" fill="#ffffff" letter-spacing="3">ENERGY</text>
  <text x="200" y="365" text-anchor="middle" font-family="Manrope, sans-serif" font-size="18" font-weight="600" fill="#ffffff" letter-spacing="6">SAVING</text>
</svg>
